<svg width="80" height="80" viewBox="0 0 80 80" fill="none" xmlns="http://www.w3.org/2000/svg">
<path d="M60.2 76.6667H65.7333C68.5333 76.6667 70.8333 74.5 71.1667 71.7667L76.6667 16.8333H60V3.33334H53.4333V16.8333H36.8667L37.8667 24.6333C43.5667 26.2 48.9 29.0333 52.1 32.1667C56.9 36.9 60.2 41.8 60.2 49.8V76.6667M3.33334 73.3333V70H53.4333V73.3333C53.4333 75.1333 51.9333 76.6667 50 76.6667H6.66667C4.83334 76.6667 3.33334 75.1333 3.33334 73.3333ZM53.4333 50C53.4333 23.3333 3.33334 23.3333 3.33334 50H53.4333ZM3.33334 56.6667H53.3333V63.3333H3.33334V56.6667Z" fill="white"/>
</svg>
